<?xml version="1.0" encoding="UTF-8"?>
<svg version="1.1" xmlns="http://www.w3.org/2000/svg" width="225" height="225">
<path d="M0 0 C74.25 0 148.5 0 225 0 C225 74.25 225 148.5 225 225 C150.75 225 76.5 225 0 225 C0 150.75 0 76.5 0 0 Z " fill="none" transform="translate(0,0)"/>
<path d="M0 0 C1.64907787 0.01120253 3.29817583 0.01973773 4.94728088 0.02572632 C9.26980551 0.04854204 13.59110398 0.10740035 17.91314697 0.1739502 C22.33060116 0.23553096 26.74825514 0.26277486 31.16601562 0.29296875 C39.82087272 0.35715271 48.47473659 0.45944153 57.12890625 0.5859375 C57.6226203 16.1285348 57.99127651 31.66980899 58.21696186 47.21835613 C58.32461415 54.44082058 58.47091347 61.65837691 58.71313477 68.87768555 C58.92452529 75.1811793 59.058389 81.48111874 59.10476464 87.78805858 C59.13184911 91.12258027 59.20523881 94.43901319 59.34923744 97.77170372 C59.87577529 110.47715742 59.87338355 120.81446598 50.95527786 130.56265026 C46.37616315 135.2912203 41.4401195 139.69468493 36.12890625 143.5859375 C35.79890625 143.5859375 35.46890625 143.5859375 35.12890625 143.5859375 C35.12890625 103.9859375 35.12890625 64.3859375 35.12890625 23.5859375 C10.04890625 23.5859375 -15.03109375 23.5859375 -40.87109375 23.5859375 C-39.22109375 21.9359375 -37.57109375 20.2859375 -35.87109375 18.5859375 C-34.91437176 17.61947139 -33.9584551 16.65220626 -33.00390625 15.68359375 C-32.00132588 14.67185142 -30.99872147 13.66013291 -29.99609375 12.6484375 C-29.50496094 12.14892578 -29.01382813 11.64941406 -28.5078125 11.13476562 C-27.52294406 10.14350193 -26.5235041 9.16645763 -25.5085907 8.20597839 C-23.86878585 6.65168212 -23.86878585 6.65168212 -22.62702942 4.99763489 C-16.75232343 -1.58121722 -8.07679035 -0.16124668 0 0 Z " fill="#FFFFFF" transform="translate(121.87109375,22.4140625)"/>
<path d="M0 0 C0 39.6 0 79.2 0 120 C25.08 120 50.16 120 76 120 C74.35 121.65 72.7 123.3 71 125 C69.94702106 126.06291559 68.89481293 127.12659597 67.84375 128.19140625 C66.72919883 129.31513607 65.61461505 130.43883355 64.5 131.5625 C63.94441406 132.12646484 63.38882813 132.69042969 62.81640625 133.27148438 C62.26855469 133.82255859 61.72070312 134.37363281 61.15625 134.94140625 C60.66962891 135.43326416 60.18300781 135.92512207 59.68164062 136.43188477 C59.12669922 136.94936279 58.57175781 137.46684082 58 138 C57.29402176 138.68297653 56.58804352 139.36595306 55.860672 140.06962585 C52.34478421 142.44213794 49.63962552 142.54022075 45.54760742 142.45410156 C44.8153595 142.45468567 44.08311157 142.45526978 43.32867432 142.45587158 C40.92044841 142.45309598 38.51347705 142.42203102 36.10546875 142.390625 C34.43110327 142.38316069 32.75672903 142.37746865 31.08235168 142.37347412 C26.68449606 142.35823261 22.28717242 142.31896396 17.88952637 142.2746582 C13.39842932 142.23367327 8.90724595 142.21545625 4.41601562 142.1953125 C-4.38956651 142.15246792 -13.194717 142.08423503 -22 142 C-22.49373899 126.58806932 -22.86238846 111.17673966 -23.08805561 95.7587328 C-23.19570146 88.59677919 -23.34198618 81.43977623 -23.58422852 74.28100586 C-23.79564147 68.03024951 -23.92948743 61.78307821 -23.97585839 55.52884597 C-24.00292678 52.22384231 -24.07641691 48.93129527 -24.22033119 45.62903786 C-24.74928694 32.97419678 -24.70764236 22.73923921 -15.82637161 13.03771967 C-3.19791611 0 -3.19791611 0 0 0 Z " fill="#FFFFFF" transform="translate(68,59)"/>
<path d="M0 0 C9.57 0 19.14 0 29 0 C29.16117207 6.54921441 29.30035466 13.09149173 29.38452148 19.64111328 C29.41961833 21.86628592 29.46730943 24.09129835 29.52807617 26.31591797 C29.61346857 29.52351475 29.6527967 32.72896985 29.68359375 35.9375 C29.71972275 36.92427734 29.75585175 37.91105469 29.79307556 38.92773438 C29.7961813 44.45157507 29.14247037 47.45793282 25.45727539 51.69140625 C24.3286211 52.81858568 23.18384647 53.93093428 22 55 C22.598125 55.268125 23.19625 55.53625 23.8125 55.8125 C26.05910038 57.03208306 27.45099993 57.97013409 29 60 C29.36076355 62.14506531 29.36076355 62.14506531 29.34057617 64.6550293 C29.34023628 66.06615242 29.34023628 66.06615242 29.33988953 67.50578308 C29.32440567 68.51836685 29.30892181 69.53095062 29.29296875 70.57421875 C29.28872391 71.61318802 29.28447906 72.65215729 29.28010559 73.72261047 C29.26329849 77.04450276 29.22564196 80.36579075 29.1875 83.6875 C29.17245582 85.93814229 29.15876695 88.18879407 29.14648438 90.43945312 C29.1159388 95.96005613 29.05721978 101.47935082 29 107 C19.43 107 9.86 107 0 107 C0 99.41 0 91.82 0 84 C2.31 84 4.62 84 7 84 C7 77.73 7 71.46 7 65 C2.71 65 -1.58 65 -6 65 C-6 57.41 -6 49.82 -6 42 C-1.71 42 2.58 42 7 42 C7 35.73 7 29.46 7 23 C5.02 23 3.04 23 1 23 C0 22 0 22 -0.11352539 19.86694336 C-0.10828857 18.95050049 -0.10305176 18.03405762 -0.09765625 17.08984375 C-0.09515869 16.199021 -0.09266113 15.30819824 -0.09008789 14.39038086 C-0.08098389 13.25093018 -0.07187988 12.11147949 -0.0625 10.9375 C-0.041875 7.328125 -0.02125 3.71875 0 0 Z " fill="#FFFFFF" transform="translate(115,59)"/>
<path d="M0 0 C9.57 0 19.14 0 29 0 C29.020625 3.609375 29.04125 7.21875 29.0625 10.9375 C29.071604 12.07695068 29.08070801 13.21640137 29.09008789 14.39038086 C29.09258545 15.28120361 29.09508301 16.17202637 29.09765625 17.08984375 C29.10551147 18.46450806 29.10551147 18.46450806 29.11352539 19.86694336 C29 22 29 22 28 23 C26.02 23 24.04 23 22 23 C22 43.13 22 63.26 22 84 C23.98 84 25.96 84 28 84 C29 85 29 85 29.11352539 87.13305664 C29.10828857 88.04949951 29.10305176 88.96594238 29.09765625 89.91015625 C29.09515869 90.800979 29.09266113 91.69180176 29.09008789 92.60961914 C29.08098389 93.74906982 29.07187988 94.88852051 29.0625 96.0625 C29.041875 99.671875 29.02125 103.28125 29 107 C19.43 107 9.86 107 0 107 C0 71.69 0 36.38 0 0 Z " fill="#FFFFFF" transform="translate(81,59)"/>
</svg>
